<?xml version="1.0" encoding="UTF-8"?>
<svg width="42px" height="42px" viewBox="0 0 42 42" version="1.1" xmlns="http://www.w3.org/2000/svg" xmlns:xlink="http://www.w3.org/1999/xlink">
    <!-- Generator: Sketch 52 (66869) - http://www.bohemiancoding.com/sketch -->
    <title>分组</title>
    <desc>Created with Sketch.</desc>
    <g id="首页" stroke="none" stroke-width="1" fill="none" fill-rule="evenodd">
        <g id="8-视频播放（交互）" transform="translate(-447.000000, -270.000000)" fill="#FFFFFF" fill-rule="nonzero">
            <g id="分组" transform="translate(25.000000, 71.000000)">
                <g id="分组-2" transform="translate(422.000000, 198.000000)">
                    <g id="分组">
                        <circle id="椭圆形" opacity="0.3" cx="21.2176391" cy="21.9181293" r="20.9880952"></circle>
                        <g id="声音-音量-面性" transform="translate(12.003353, 12.703844)">
                            <path d="M15.6977752,15.5433621 C15.4740741,15.7710225 15.105858,15.7789411 14.8722586,15.561179 C14.8603806,15.549301 14.8485027,15.5394027 14.8386044,15.5255451 C14.6069846,15.2701695 14.6129236,14.8841365 14.8544417,14.6366795 C16.2738552,13.2232049 17.0914532,11.2791825 17.0914532,9.20054345 C17.0914532,7.13378233 16.2857331,5.20163784 14.8801772,3.78816328 C14.6386591,3.54070625 14.6346998,3.15269362 14.8682993,2.89929763 C15.0840818,2.66569819 15.4522979,2.64392197 15.6918363,2.85376553 C15.7037142,2.86366381 15.7155921,2.87554175 15.7274701,2.88741969 C17.3666255,4.53449368 18.3089418,6.78932214 18.3089418,9.20054345 C18.3049825,11.6256223 17.3527679,13.8943084 15.6977752,15.5433621 Z M13.280615,12.5817963 C13.0529545,12.8153957 12.6748402,12.8233144 12.4353017,12.6015929 C12.4313424,12.5976336 12.4254035,12.5936742 12.4214442,12.5877353 C12.1819058,12.3521562 12.1799261,11.9740418 12.4135255,11.7345034 C13.084629,11.051522 13.458784,10.1428598 13.4548247,9.19658414 C13.458784,8.26416604 13.0965069,7.36738177 12.4412407,6.68835968 C12.2096209,6.44486196 12.2175396,6.06674761 12.4590576,5.83512783 C12.6946367,5.60944702 13.0727511,5.61142668 13.3043708,5.83908715 C13.3083302,5.84304646 13.3122895,5.84700577 13.3162488,5.85294474 C14.1872975,6.7596273 14.6703336,7.95533967 14.6663743,9.19856379 C14.6703336,10.4794014 14.1655213,11.685012 13.280615,12.5817963 Z M9.1530317,17.893214 L4.88885215,15.1850443 L1.32547091,15.1850443 C0.656347101,15.1850443 0.111941634,14.6564761 0.111941634,14.0031895 L0.111941634,4.83144212 C0.111941634,4.17815556 0.654367445,3.64958734 1.32547091,3.64958734 L4.88885215,3.64958734 L9.0896827,0.581120164 C9.62616954,0.189148228 10.3863575,0.296049665 10.7882278,0.818678913 C10.9446206,1.02258351 11.0297458,1.27202019 11.0297458,1.52739585 L11.0297458,16.9033859 C11.0297458,17.5566725 10.48732,18.0852407 9.8181962,18.0852407 C9.58063745,18.0852407 9.35099732,18.0179324 9.1530317,17.893214 Z" id="形状"></path>
                        </g>
                    </g>
                </g>
            </g>
        </g>
    </g>
</svg>