<?xml version="1.0" encoding="UTF-8"?>
<svg width="51px" height="52px" viewBox="0 0 51 52" version="1.1" xmlns="http://www.w3.org/2000/svg" xmlns:xlink="http://www.w3.org/1999/xlink">
    <!-- Generator: Sketch 52 (66869) - http://www.bohemiancoding.com/sketch -->
    <title>分组 2</title>
    <desc>Created with Sketch.</desc>
    <g id="首页" stroke="none" stroke-width="1" fill="none" fill-rule="evenodd">
        <g id="9—全屏展示" transform="translate(-24.000000, -289.000000)" fill="#FFFFFF" fill-rule="nonzero">
            <g id="分组" transform="translate(-1.000000, 20.000000)">
                <g id="分组-5-copy-2" transform="translate(25.000000, 269.000000)">
                    <g id="图标/上一集" transform="translate(0.140625, 0.903080)">
                        <g id="分组-3">
                            <g id="分组-2">
                                <circle id="椭圆形" opacity="0.3" cx="25.6143592" cy="25.0900865" r="24.6"></circle>
                                <g id="分组" transform="translate(25.200000, 25.200000) scale(-1, 1) translate(-25.200000, -25.200000) translate(16.800000, 16.800000)">
                                    <path d="M13.6011071,7.49279658 L2.56691616,0.742910449 C1.94864043,0.366830321 1.14082031,0.83617832 1.14082031,1.538696 L1.14082031,15.0384683 C1.14082031,15.7409859 1.94864043,16.2103339 2.56691616,15.8357581 L13.5529688,9.085872 C14.2193828,8.75793013 14.2193828,7.82073845 13.6011071,7.49279658 Z" id="路径"></path>
                                    <path d="M14.0584205,1.70567558 C14.0584205,1.09492145 14.5503333,0.6 15.1595832,0.6 L15.3867355,0.6 C15.994481,0.6 16.4878982,1.09492145 16.4878982,1.70567558 L16.4878982,14.8744973 C16.4878982,15.4852515 15.9959854,15.9801729 15.3867355,15.9801729 L15.1595832,15.9801729 C14.5518377,15.9801729 14.0584205,15.4852515 14.0584205,14.8744973 L14.0584205,1.70567558 Z" id="路径"></path>
                                </g>
                            </g>
                        </g>
                    </g>
                </g>
            </g>
        </g>
    </g>
</svg>