<?xml version="1.0" encoding="UTF-8"?>
<svg width="52px" height="52px" viewBox="0 0 52 52" version="1.1" xmlns="http://www.w3.org/2000/svg" xmlns:xlink="http://www.w3.org/1999/xlink">
    <!-- Generator: Sketch 52 (66869) - http://www.bohemiancoding.com/sketch -->
    <title>椭圆形</title>
    <desc>Created with Sketch.</desc>
    <g id="首页" stroke="none" stroke-width="1" fill="none" fill-rule="evenodd">
        <g id="9—全屏展示" transform="translate(-148.000000, -289.000000)" fill="#FFFFFF" fill-rule="nonzero">
            <g id="分组" transform="translate(-1.000000, 20.000000)">
                <g id="分组-5-copy-2" transform="translate(25.000000, 269.000000)">
                    <g id="图标/下一集" transform="translate(124.940625, 0.903080)">
                        <g id="分组-2">
                            <g id="分组">
                                <circle id="椭圆形" opacity="0.3" cx="24.8690467" cy="25.0900865" r="24.6"></circle>
                                <path d="M29.6557946,24.2927966 L18.6216037,17.5429104 C18.0033279,17.1668303 17.1955078,17.6361783 17.1955078,18.338696 L17.1955078,31.8384683 C17.1955078,32.5409859 18.0033279,33.0103339 18.6216037,32.6357581 L29.6076563,25.885872 C30.2740703,25.5579301 30.2740703,24.6207385 29.6557946,24.2927966 Z M30.113108,18.5056756 C30.113108,17.8949214 30.6050208,17.4 31.2142707,17.4 L31.441423,17.4 C32.0491685,17.4 32.5425857,17.8949214 32.5425857,18.5056756 L32.5425857,31.6744973 C32.5425857,32.2852515 32.0506729,32.7801729 31.441423,32.7801729 L31.2142707,32.7801729 C30.6065252,32.7801729 30.113108,32.2852515 30.113108,31.6744973 L30.113108,18.5056756 Z" id="形状"></path>
                            </g>
                        </g>
                    </g>
                </g>
            </g>
        </g>
    </g>
</svg>